<?xml version="1.0" encoding="utf-8"?>
<!-- Generator: Adobe Illustrator 18.0.0, SVG Export Plug-In . SVG Version: 6.00 Build 0)  -->
<!DOCTYPE svg PUBLIC "-//W3C//DTD SVG 1.1//EN" "http://www.w3.org/Graphics/SVG/1.1/DTD/svg11.dtd">
<svg version="1.1" id="Layer_1" xmlns="http://www.w3.org/2000/svg" xmlns:xlink="http://www.w3.org/1999/xlink" x="0px" y="0px"
	 viewBox="0 0 64 64" enable-background="new 0 0 64 64" xml:space="preserve">
<g>
	<g>
		<g>
			<path d="M63.8,31.4C61.1,28.3,46.6,13,32,13C17.4,13,2.9,28.3,0.2,31.4c-0.3,0.4-0.3,0.9,0,1.3C2.9,35.8,17.4,51,32,51
				c14.6,0,29.1-15.2,31.8-18.3C64.1,32.3,64.1,31.7,63.8,31.4z M32,44c-6.6,0-12-5.4-12-12s5.4-12,12-12s12,5.4,12,12
				S38.6,44,32,44z"/>
		</g>
	</g>
	<g>
		<g>
			<circle cx="32" cy="32" r="7"/>
		</g>
	</g>
</g>
</svg>
